<svg id="svg" version="1.1" xmlns="http://www.w3.org/2000/svg" xmlns:xlink="http://www.w3.org/1999/xlink" width="400" height="400" viewBox="0, 0, 400,400"><g id="svgg"><path id="path0" d="M192.724 5.768 C 188.231 7.054,184.590 11.160,177.375 23.081 C 174.795 27.344,163.468 45.546,160.872 49.600 C 159.534 51.690,156.869 56.010,154.951 59.200 C 153.033 62.390,150.711 66.170,149.792 67.600 C 148.872 69.030,146.349 73.080,144.186 76.600 C 142.022 80.120,137.738 87.050,134.666 92.000 C 131.595 96.950,128.138 102.530,126.985 104.400 C 125.832 106.270,123.039 110.770,120.778 114.400 C 118.518 118.030,114.652 124.330,112.188 128.400 C 109.723 132.470,106.616 137.510,105.283 139.600 C 102.229 144.386,96.653 153.383,88.822 166.160 C 85.465 171.638,81.897 177.398,80.893 178.960 C 79.889 180.522,77.589 184.230,75.781 187.200 C 72.556 192.501,67.679 200.378,64.838 204.877 C 50.960 226.855,47.667 233.040,47.311 237.800 C 47.108 240.519,47.156 240.934,47.636 240.558 C 48.522 239.863,50.110 239.593,50.654 240.044 C 50.974 240.311,51.405 240.321,51.874 240.075 C 52.273 239.866,55.660 239.676,59.400 239.653 C 72.241 239.573,69.272 242.261,85.297 216.200 C 89.356 209.600,96.599 197.900,101.393 190.200 C 111.061 174.671,123.567 154.509,129.802 144.400 C 195.656 37.615,195.372 38.060,198.367 37.163 C 202.984 35.779,203.422 36.361,229.293 78.200 C 231.606 81.940,236.066 89.140,239.205 94.200 C 242.344 99.260,246.300 105.650,247.996 108.400 C 249.692 111.150,254.642 119.160,258.997 126.200 C 263.351 133.240,268.155 141.046,269.673 143.546 C 271.191 146.046,273.749 150.186,275.357 152.746 C 276.965 155.306,279.269 159.020,280.478 161.000 C 281.687 162.980,283.604 166.085,284.738 167.900 C 289.549 175.599,291.039 178.003,293.228 181.600 C 294.500 183.690,300.279 192.998,306.070 202.285 C 311.862 211.572,318.760 222.719,321.400 227.057 C 329.517 240.394,328.398 239.628,340.267 239.969 C 344.704 240.096,348.468 240.333,348.630 240.497 C 348.793 240.660,349.137 240.618,349.394 240.405 C 349.683 240.165,350.337 240.153,351.102 240.372 C 354.808 241.435,352.923 233.541,347.231 224.157 C 346.311 222.641,345.396 221.130,345.197 220.800 C 343.633 218.202,336.129 206.108,332.540 200.400 C 330.119 196.550,326.455 190.610,324.397 187.200 C 322.339 183.790,319.549 179.290,318.198 177.200 C 316.846 175.110,315.048 172.230,314.202 170.800 C 313.356 169.370,312.091 167.300,311.391 166.200 C 310.691 165.100,308.807 162.040,307.204 159.400 C 303.126 152.683,295.214 139.996,290.990 133.400 C 290.285 132.300,288.093 128.700,286.118 125.400 C 284.143 122.100,281.175 117.240,279.523 114.600 C 272.465 103.322,263.963 89.603,260.868 84.497 C 259.035 81.474,255.680 76.030,253.412 72.400 C 251.144 68.770,247.582 63.010,245.496 59.600 C 243.411 56.190,238.934 48.990,235.547 43.600 C 232.161 38.210,228.344 32.090,227.065 30.000 C 216.303 12.412,213.178 8.250,209.324 6.374 C 206.936 5.213,196.054 4.815,192.724 5.768 M197.519 65.374 C 196.028 66.926,194.470 69.357,180.580 91.800 C 175.133 100.600,166.772 114.100,161.998 121.800 C 152.667 136.852,147.051 145.927,135.014 165.400 C 130.799 172.220,121.882 186.620,115.199 197.400 C 96.112 228.192,96.209 228.001,99.005 229.275 C 99.874 229.671,100.844 229.510,105.316 228.227 C 123.341 223.056,128.828 221.777,139.651 220.229 C 178.403 214.686,211.156 214.249,249.200 218.767 C 267.704 220.965,272.737 221.963,288.994 226.656 C 305.162 231.324,305.529 230.805,296.450 216.092 C 294.722 213.291,291.247 207.670,288.729 203.600 C 286.210 199.530,282.201 193.050,279.821 189.200 C 271.835 176.280,270.174 173.598,255.315 149.600 C 241.229 126.852,237.489 120.816,232.385 112.600 C 229.378 107.760,224.076 99.210,220.602 93.600 C 202.096 63.716,202.293 64.000,200.072 64.000 C 199.190 64.000,198.463 64.391,197.519 65.374 M78.629 243.829 C 76.848 245.609,73.536 242.058,134.565 303.800 C 203.661 373.702,198.263 368.863,203.431 365.531 C 206.948 363.264,319.232 250.057,321.888 246.100 C 323.638 243.493,318.209 241.977,314.730 244.102 C 312.400 245.525,303.822 253.923,252.866 304.666 C 205.289 352.043,202.370 354.800,199.782 354.800 C 197.109 354.800,198.816 356.427,140.600 298.399 C 88.940 246.905,87.234 245.242,84.844 244.022 C 82.868 243.014,79.546 242.911,78.629 243.829 " stroke="none" fill="#fbfbfb" fill-rule="evenodd"></path><path id="path1" d="M197.773 37.366 C 195.160 38.503,193.365 41.331,129.802 144.400 C 123.567 154.509,111.061 174.671,101.393 190.200 C 96.599 197.900,89.356 209.600,85.297 216.200 C 69.272 242.261,72.241 239.573,59.400 239.653 C 55.660 239.676,52.273 239.866,51.874 240.075 C 51.405 240.321,50.974 240.311,50.654 240.044 C 50.136 239.615,48.536 239.854,47.731 240.481 C 47.407 240.733,47.214 240.560,47.107 239.923 C 47.022 239.416,46.807 240.220,46.628 241.710 C 46.012 246.873,47.610 250.987,52.299 256.302 C 58.392 263.209,143.049 348.342,159.792 364.400 C 165.872 370.230,175.830 379.886,181.923 385.858 C 193.554 397.260,194.011 397.622,197.718 398.386 C 203.608 399.600,204.954 398.774,218.087 385.883 C 224.185 379.897,234.049 370.320,240.008 364.600 C 257.356 347.945,342.327 262.462,348.037 255.920 C 352.470 250.841,353.909 247.009,353.389 241.668 C 353.138 239.088,353.033 238.769,352.724 239.666 C 352.389 240.635,352.243 240.699,351.109 240.374 C 350.337 240.153,349.684 240.164,349.394 240.405 C 349.137 240.618,348.793 240.660,348.630 240.497 C 348.468 240.333,344.704 240.096,340.267 239.969 C 328.398 239.628,329.517 240.394,321.400 227.057 C 318.760 222.719,311.862 211.572,306.070 202.285 C 300.279 192.998,294.500 183.690,293.228 181.600 C 291.039 178.003,289.549 175.599,284.738 167.900 C 283.604 166.085,281.687 162.980,280.478 161.000 C 279.269 159.020,276.965 155.306,275.357 152.746 C 273.749 150.186,271.191 146.046,269.673 143.546 C 268.155 141.046,263.351 133.240,258.997 126.200 C 254.642 119.160,249.692 111.150,247.996 108.400 C 246.300 105.650,242.344 99.260,239.205 94.200 C 236.066 89.140,231.606 81.940,229.293 78.200 C 202.928 35.562,202.673 35.232,197.773 37.366 M202.623 65.397 C 203.886 66.737,206.698 71.147,220.602 93.600 C 224.076 99.210,229.378 107.760,232.385 112.600 C 237.489 120.816,241.229 126.852,255.315 149.600 C 270.174 173.598,271.835 176.280,279.821 189.200 C 282.201 193.050,286.210 199.530,288.729 203.600 C 306.814 232.822,306.802 231.798,288.994 226.656 C 272.737 221.963,267.704 220.965,249.200 218.767 C 211.156 214.249,178.403 214.686,139.651 220.229 C 128.828 221.777,123.341 223.056,105.316 228.227 C 100.844 229.510,99.874 229.671,99.005 229.275 C 96.209 228.001,96.112 228.192,115.199 197.400 C 121.882 186.620,130.799 172.220,135.014 165.400 C 147.051 145.927,152.667 136.852,161.998 121.800 C 166.772 114.100,175.133 100.600,180.580 91.800 C 194.470 69.357,196.028 66.926,197.519 65.374 C 199.315 63.504,200.844 63.511,202.623 65.397 M84.844 244.022 C 87.234 245.242,88.940 246.905,140.600 298.399 C 198.816 356.427,197.109 354.800,199.782 354.800 C 202.370 354.800,205.289 352.043,252.866 304.666 C 303.822 253.923,312.400 245.525,314.730 244.102 C 318.209 241.977,323.638 243.493,321.888 246.100 C 319.232 250.057,206.948 363.264,203.431 365.531 C 198.263 368.863,203.661 373.702,134.565 303.800 C 81.527 250.143,78.000 246.493,78.000 245.258 C 78.000 243.127,81.759 242.448,84.844 244.022 " stroke="none" fill="#040404" fill-rule="evenodd"></path></g></svg>