<svg id="svg" version="1.1" xmlns="http://www.w3.org/2000/svg" xmlns:xlink="http://www.w3.org/1999/xlink" width="400" height="400" viewBox="0, 0, 400,400"><g id="svgg"><path id="path0" d="M197.929 16.070 C 197.560 16.361,196.693 17.725,196.003 19.100 C 195.314 20.474,194.311 22.120,193.775 22.757 C 193.239 23.394,192.800 24.032,192.800 24.174 C 192.800 24.317,192.440 24.820,192.000 25.292 C 191.560 25.764,191.200 26.387,191.200 26.675 C 191.200 26.964,191.041 27.200,190.847 27.200 C 190.653 27.200,190.019 28.171,189.438 29.359 C 188.857 30.546,188.116 31.738,187.791 32.008 C 187.466 32.277,187.200 32.731,187.200 33.016 C 187.200 33.300,187.055 33.593,186.877 33.667 C 186.429 33.851,184.000 37.455,184.000 37.934 C 184.000 38.563,182.265 41.702,181.466 42.518 C 181.062 42.931,180.337 44.121,179.854 45.163 C 179.371 46.204,178.421 47.731,177.742 48.554 C 177.063 49.378,176.266 50.535,175.971 51.126 C 175.676 51.717,175.187 52.501,174.884 52.868 C 174.157 53.751,172.838 56.021,172.542 56.900 C 172.413 57.285,172.148 57.600,171.953 57.600 C 171.759 57.600,171.600 57.960,171.600 58.400 C 171.600 58.840,171.420 59.200,171.200 59.200 C 170.980 59.200,170.800 59.455,170.800 59.767 C 170.800 60.078,170.665 60.393,170.500 60.467 C 170.137 60.628,168.250 63.162,167.868 64.000 C 167.718 64.330,167.143 65.320,166.590 66.200 C 166.038 67.080,165.409 68.205,165.193 68.700 C 164.185 71.007,163.969 71.450,163.501 72.166 C 163.225 72.587,162.325 73.644,161.500 74.514 C 160.675 75.384,160.000 76.345,160.000 76.648 C 160.000 76.952,159.820 77.200,159.600 77.200 C 159.380 77.200,159.200 77.560,159.200 78.000 C 159.200 78.440,159.020 78.800,158.800 78.800 C 158.580 78.800,158.400 79.160,158.400 79.600 C 158.400 80.040,158.220 80.400,158.000 80.400 C 157.780 80.400,157.600 80.760,157.600 81.200 C 157.600 81.640,157.420 82.000,157.200 82.000 C 156.980 82.000,156.800 82.232,156.800 82.515 C 156.800 82.798,156.267 83.653,155.616 84.415 C 154.965 85.177,154.425 85.997,154.416 86.238 C 154.407 86.479,154.066 86.978,153.658 87.348 C 153.250 87.717,152.487 88.870,151.963 89.910 C 151.439 90.949,150.909 91.890,150.785 92.000 C 150.660 92.110,150.248 92.866,149.870 93.681 C 149.491 94.495,148.773 95.665,148.275 96.281 C 147.221 97.583,144.130 102.285,142.806 104.600 C 142.303 105.480,141.556 106.785,141.146 107.500 C 139.099 111.068,138.800 111.667,138.800 112.198 C 138.800 112.514,138.440 112.965,138.000 113.200 C 137.560 113.435,137.200 113.810,137.200 114.032 C 137.200 114.253,136.736 114.922,136.169 115.517 C 135.602 116.113,134.969 116.960,134.763 117.400 C 134.557 117.840,134.031 118.740,133.593 119.400 C 133.156 120.060,132.268 121.663,131.618 122.961 C 130.969 124.260,129.931 125.880,129.312 126.561 C 128.693 127.243,127.894 128.340,127.537 129.000 C 125.120 133.463,124.000 135.733,124.000 136.171 C 124.000 136.449,123.640 137.002,123.200 137.400 C 122.760 137.798,122.400 138.300,122.400 138.516 C 122.400 138.732,121.995 139.303,121.500 139.786 C 120.141 141.111,119.491 142.022,118.473 144.030 C 117.964 145.036,117.085 146.385,116.521 147.029 C 115.956 147.673,115.164 148.934,114.759 149.831 C 114.354 150.728,113.697 151.898,113.299 152.431 C 112.900 152.964,112.220 154.085,111.787 154.922 C 111.354 155.759,110.595 156.825,110.100 157.292 C 109.605 157.758,109.200 158.558,109.200 159.070 C 109.200 159.581,109.020 160.000,108.800 160.000 C 108.580 160.000,108.400 160.360,108.400 160.800 C 108.400 161.240,108.220 161.600,108.000 161.600 C 107.780 161.600,107.600 161.864,107.600 162.186 C 107.600 162.508,107.240 162.965,106.800 163.200 C 106.360 163.435,106.000 163.864,106.000 164.152 C 106.000 164.440,105.640 165.002,105.200 165.400 C 104.760 165.798,104.400 166.366,104.400 166.662 C 104.400 166.958,104.220 167.200,104.000 167.200 C 103.780 167.200,103.600 167.442,103.600 167.738 C 103.600 168.034,103.240 168.602,102.800 169.000 C 102.360 169.398,101.996 169.921,101.991 170.162 C 101.986 170.403,101.630 171.050,101.200 171.600 C 100.770 172.150,100.414 172.915,100.409 173.300 C 100.404 173.685,100.265 174.001,100.100 174.003 C 99.800 174.006,98.800 175.895,98.800 176.459 C 98.800 176.624,98.364 177.230,97.830 177.805 C 96.552 179.185,93.724 183.966,93.383 185.326 C 93.235 185.917,92.975 186.400,92.807 186.400 C 92.639 186.400,91.560 187.833,90.410 189.584 C 89.260 191.336,88.068 192.978,87.760 193.233 C 87.452 193.489,87.200 194.036,87.200 194.449 C 87.200 194.862,87.041 195.200,86.847 195.200 C 86.653 195.200,86.011 196.187,85.421 197.392 C 84.831 198.598,84.185 199.686,83.985 199.809 C 83.785 199.933,83.315 200.679,82.941 201.468 C 82.215 202.999,79.629 207.100,77.621 209.907 C 76.950 210.846,76.400 211.791,76.400 212.007 C 76.400 212.223,76.220 212.400,76.000 212.400 C 75.780 212.400,75.596 212.625,75.591 212.900 C 75.586 213.175,75.230 213.850,74.800 214.400 C 74.370 214.950,74.014 215.690,74.009 216.044 C 74.004 216.398,73.322 217.478,72.493 218.444 C 71.664 219.410,70.726 220.740,70.407 221.400 C 70.089 222.060,69.507 223.078,69.114 223.662 C 68.721 224.246,68.396 224.966,68.391 225.262 C 68.386 225.558,68.030 226.250,67.600 226.800 C 67.170 227.350,66.814 228.037,66.809 228.327 C 66.804 228.616,66.161 229.516,65.380 230.327 C 64.599 231.137,63.480 232.610,62.895 233.600 C 62.309 234.590,61.691 235.459,61.522 235.531 C 61.111 235.706,60.286 238.819,60.574 239.107 C 60.698 239.232,60.800 239.117,60.800 238.852 C 60.800 238.494,61.703 238.439,64.351 238.639 C 66.304 238.787,68.557 238.784,69.358 238.634 C 70.963 238.333,70.593 238.812,75.878 230.200 C 77.633 227.340,81.860 220.500,85.270 215.000 C 91.761 204.533,97.917 194.571,103.315 185.800 C 105.075 182.940,107.367 179.250,108.407 177.600 C 110.094 174.925,116.080 165.258,123.515 153.200 C 124.939 150.890,126.779 147.920,127.603 146.600 C 128.428 145.280,133.114 137.720,138.016 129.800 C 142.919 121.880,148.997 112.070,151.523 108.000 C 154.049 103.930,157.329 98.620,158.811 96.200 C 160.293 93.780,167.312 82.440,174.408 71.000 C 191.186 43.954,192.265 42.209,195.427 37.000 C 197.927 32.881,198.929 31.600,199.653 31.600 C 199.818 31.600,201.709 34.435,203.856 37.900 C 210.816 49.136,220.848 65.301,223.405 69.400 C 224.778 71.600,226.328 74.138,226.850 75.039 C 227.373 75.941,230.428 80.891,233.640 86.039 C 236.853 91.188,242.862 100.890,246.995 107.600 C 251.127 114.310,255.355 121.150,256.389 122.800 C 257.423 124.450,259.172 127.240,260.277 129.000 C 261.381 130.760,263.726 134.540,265.488 137.400 C 267.250 140.260,272.702 149.080,277.603 157.000 C 282.504 164.920,287.959 173.740,289.724 176.600 C 291.490 179.460,294.502 184.320,296.417 187.400 C 299.867 192.947,309.655 208.763,319.192 224.200 C 321.910 228.600,324.959 233.527,325.967 235.148 C 328.215 238.763,328.577 238.915,334.400 238.685 C 339.672 238.477,339.952 238.256,338.015 235.819 C 337.347 234.978,336.800 234.153,336.800 233.985 C 336.800 233.817,335.990 232.602,335.000 231.285 C 334.010 229.968,333.200 228.767,333.200 228.617 C 333.200 228.467,332.660 227.559,332.000 226.600 C 331.340 225.641,330.800 224.663,330.800 224.428 C 330.800 224.193,330.665 223.999,330.500 223.997 C 330.167 223.993,329.201 222.081,329.198 221.420 C 329.197 221.189,328.522 220.100,327.698 219.000 C 326.874 217.900,325.945 216.505,325.632 215.900 C 325.320 215.295,324.915 214.800,324.732 214.800 C 324.550 214.800,324.400 214.607,324.400 214.372 C 324.400 214.137,323.897 213.192,323.281 212.272 C 322.666 211.352,321.721 209.737,321.181 208.681 C 320.642 207.626,319.534 205.952,318.720 204.962 C 317.906 203.971,316.744 202.135,316.139 200.881 C 315.533 199.626,314.939 198.510,314.818 198.400 C 314.697 198.290,314.329 197.660,313.999 197.000 C 313.670 196.340,312.742 194.920,311.937 193.844 C 311.133 192.767,310.239 191.417,309.952 190.844 C 309.664 190.270,308.778 188.810,307.982 187.600 C 305.220 183.397,302.502 178.919,300.701 175.600 C 300.044 174.390,299.182 172.943,298.786 172.384 C 298.389 171.825,297.477 170.295,296.759 168.984 C 296.040 167.673,295.222 166.368,294.940 166.085 C 294.658 165.802,294.113 165.037,293.727 164.385 C 293.342 163.733,292.706 163.097,292.313 162.973 C 291.921 162.848,291.600 162.570,291.600 162.354 C 291.600 162.138,291.240 161.216,290.800 160.306 C 290.360 159.395,290.000 158.496,290.000 158.308 C 290.000 158.120,289.817 157.749,289.594 157.483 C 288.217 155.842,284.365 149.532,282.649 146.103 C 282.402 145.610,282.065 145.205,281.900 145.203 C 281.735 145.201,281.600 144.968,281.600 144.685 C 281.600 144.402,281.067 143.547,280.416 142.785 C 279.765 142.023,279.225 141.179,279.216 140.909 C 279.207 140.639,278.748 140.122,278.196 139.760 C 277.643 139.398,276.902 138.449,276.548 137.651 C 274.924 133.988,273.921 131.998,273.597 131.798 C 273.404 131.679,272.503 130.235,271.595 128.590 C 270.687 126.946,269.813 125.600,269.652 125.600 C 269.492 125.600,269.133 124.970,268.854 124.200 C 268.576 123.430,267.928 122.301,267.415 121.691 C 266.902 121.081,266.092 119.833,265.615 118.918 C 265.138 118.003,264.489 117.040,264.174 116.778 C 263.858 116.516,263.600 116.081,263.600 115.810 C 263.600 115.540,263.060 114.754,262.400 114.063 C 261.740 113.372,261.200 112.536,261.200 112.204 C 261.200 111.872,261.020 111.600,260.800 111.600 C 260.580 111.600,260.400 111.364,260.400 111.075 C 260.400 110.787,260.083 110.202,259.696 109.775 C 259.309 109.349,258.192 107.403,257.214 105.452 C 256.236 103.500,254.847 101.250,254.127 100.452 C 253.407 99.653,252.814 98.883,252.809 98.741 C 252.804 98.598,252.080 97.297,251.200 95.848 C 250.320 94.400,249.598 93.076,249.596 92.907 C 249.593 92.738,248.875 91.700,248.000 90.600 C 247.125 89.500,246.407 88.397,246.404 88.149 C 246.402 87.901,246.127 87.471,245.793 87.194 C 245.459 86.917,244.883 86.040,244.513 85.245 C 244.144 84.450,243.734 83.710,243.602 83.600 C 243.470 83.490,242.864 82.368,242.256 81.108 C 241.647 79.847,240.985 78.714,240.785 78.591 C 240.585 78.467,240.126 77.744,239.765 76.983 C 239.404 76.222,238.949 75.600,238.754 75.600 C 238.559 75.600,238.400 75.375,238.400 75.100 C 238.400 74.825,237.770 73.892,237.000 73.027 C 236.230 72.162,235.600 71.249,235.600 70.999 C 235.600 70.748,235.065 69.835,234.411 68.971 C 233.757 68.107,233.217 67.119,233.211 66.775 C 233.205 66.432,232.869 65.796,232.465 65.362 C 232.061 64.928,231.617 64.129,231.478 63.587 C 231.339 63.044,230.807 62.150,230.295 61.600 C 229.010 60.218,226.800 56.947,226.800 56.428 C 226.800 56.193,226.620 56.000,226.400 56.000 C 226.180 56.000,226.000 55.735,226.000 55.412 C 226.000 54.187,222.610 48.938,221.002 47.673 C 220.451 47.239,220.000 46.613,220.000 46.280 C 220.000 45.701,218.445 42.416,217.974 42.000 C 217.849 41.890,217.147 40.720,216.413 39.400 C 215.680 38.080,214.612 36.372,214.040 35.604 C 213.468 34.836,212.807 33.846,212.571 33.404 C 211.722 31.814,210.996 30.596,210.779 30.400 C 210.658 30.290,210.256 29.570,209.887 28.800 C 209.518 28.030,208.583 26.682,207.808 25.804 C 207.034 24.927,206.400 23.914,206.400 23.553 C 206.400 23.193,206.109 22.656,205.753 22.361 C 205.398 22.066,204.673 20.919,204.144 19.812 C 202.332 16.026,199.864 14.540,197.929 16.070 M197.758 59.116 C 194.999 63.626,187.570 75.668,186.108 78.000 C 182.473 83.799,177.435 91.924,176.807 93.000 C 176.421 93.660,175.156 95.730,173.995 97.600 C 172.834 99.470,170.717 102.890,169.290 105.200 C 167.863 107.510,166.354 109.940,165.937 110.600 C 165.520 111.260,163.392 114.680,161.209 118.200 C 159.026 121.720,157.096 124.781,156.920 125.002 C 156.744 125.224,156.168 126.214,155.641 127.202 C 155.113 128.191,154.471 129.270,154.213 129.600 C 153.956 129.930,152.426 132.360,150.813 135.000 C 146.906 141.395,145.702 143.305,145.211 143.883 C 144.985 144.149,144.800 144.448,144.800 144.548 C 144.800 144.648,142.975 147.671,140.744 151.265 C 138.513 154.859,136.080 158.790,135.336 160.000 C 134.592 161.210,132.460 164.630,130.598 167.600 C 128.736 170.570,127.041 173.388,126.831 173.861 C 126.621 174.335,126.270 174.833,126.050 174.969 C 125.830 175.105,125.394 175.707,125.080 176.308 C 124.766 176.909,124.260 177.852,123.955 178.404 C 123.372 179.458,118.312 187.615,114.339 193.903 C 113.053 195.940,112.000 197.702,112.000 197.820 C 112.000 197.938,111.813 198.251,111.585 198.517 C 111.356 198.783,109.621 201.520,107.729 204.600 C 105.837 207.680,103.099 212.080,101.644 214.377 C 100.190 216.674,98.926 218.740,98.837 218.967 C 98.747 219.194,97.262 221.594,95.537 224.299 C 93.811 227.005,92.400 229.394,92.400 229.609 C 92.400 229.824,92.220 230.000,92.000 230.000 C 91.780 230.000,91.600 230.171,91.600 230.379 C 91.600 230.951,86.804 238.526,86.079 239.100 C 85.630 239.455,83.499 239.600,78.724 239.600 C 75.026 239.600,72.003 239.735,72.006 239.900 C 72.019 240.528,73.289 241.836,98.216 266.892 C 112.287 281.035,140.703 309.661,161.361 330.504 C 182.020 351.347,199.135 368.400,199.394 368.400 C 199.781 368.400,277.758 290.204,280.124 287.444 C 280.522 286.980,291.187 276.238,303.824 263.574 C 316.461 250.909,326.800 240.334,326.800 240.074 C 326.800 239.729,325.117 239.600,320.626 239.600 L 314.453 239.600 290.284 263.900 C 259.952 294.397,232.679 321.898,214.600 340.217 C 206.053 348.878,200.307 354.402,199.849 354.401 C 199.416 354.401,197.073 352.323,194.320 349.500 C 191.692 346.805,178.723 333.710,165.499 320.400 C 93.739 248.172,85.667 239.963,86.200 239.753 C 86.420 239.666,88.400 238.240,90.600 236.584 C 95.521 232.881,103.595 228.773,110.200 226.613 C 111.960 226.037,113.760 225.412,114.200 225.224 C 118.632 223.325,134.260 219.782,146.800 217.833 C 165.082 214.991,176.834 214.200,200.800 214.200 C 224.766 214.200,236.518 214.991,254.800 217.833 C 268.522 219.966,283.929 223.567,289.800 226.014 C 290.240 226.197,291.770 226.740,293.200 227.220 C 296.973 228.486,304.499 232.130,308.068 234.419 C 311.657 236.721,311.944 236.807,310.827 235.238 C 310.372 234.599,310.000 233.963,310.000 233.825 C 310.000 233.687,309.214 232.365,308.253 230.887 C 305.349 226.420,303.600 223.596,303.600 223.375 C 303.600 223.260,303.415 222.949,303.189 222.683 C 302.831 222.262,301.672 220.402,296.741 212.333 C 296.158 211.380,294.853 209.278,293.841 207.662 C 292.828 206.046,292.000 204.561,292.000 204.362 C 292.000 204.163,291.820 204.000,291.600 204.000 C 291.380 204.000,291.200 203.810,291.200 203.578 C 291.200 203.346,290.510 202.131,289.666 200.878 C 288.822 199.625,286.867 196.530,285.322 194.000 C 283.777 191.470,281.318 187.451,279.857 185.069 C 278.395 182.687,277.200 180.587,277.200 180.402 C 277.200 180.218,277.050 180.007,276.868 179.933 C 276.592 179.823,273.261 174.665,271.800 172.087 C 271.580 171.698,270.393 169.765,269.162 167.790 C 267.930 165.816,265.428 161.770,263.601 158.800 C 261.774 155.830,259.078 151.510,257.611 149.200 C 256.144 146.890,254.825 144.730,254.680 144.400 C 254.535 144.070,252.882 141.391,251.008 138.447 C 249.134 135.503,247.600 133.034,247.600 132.961 C 247.600 132.888,246.610 131.293,245.400 129.418 C 244.190 127.542,243.200 125.914,243.200 125.800 C 243.200 125.685,242.570 124.695,241.800 123.600 C 241.030 122.505,240.400 121.527,240.400 121.428 C 240.400 121.328,239.344 119.571,238.054 117.524 C 236.764 115.476,234.041 111.100,232.002 107.800 C 229.963 104.500,227.835 101.080,227.274 100.200 C 226.712 99.320,226.059 98.240,225.823 97.800 C 225.468 97.140,219.313 87.208,211.372 74.480 C 210.507 73.094,209.508 71.474,209.150 70.880 C 208.793 70.286,207.803 68.684,206.950 67.321 C 206.098 65.957,204.232 62.942,202.804 60.621 C 199.746 55.650,199.858 55.683,197.758 59.116 " stroke="none" fill="#fafafa" fill-rule="evenodd"></path><path id="path1" d="M198.725 32.100 C 198.380 32.375,196.896 34.580,195.427 37.000 C 192.265 42.209,191.186 43.954,174.408 71.000 C 167.312 82.440,160.293 93.780,158.811 96.200 C 157.329 98.620,154.049 103.930,151.523 108.000 C 148.997 112.070,142.919 121.880,138.016 129.800 C 133.114 137.720,128.428 145.280,127.603 146.600 C 126.779 147.920,124.939 150.890,123.515 153.200 C 116.080 165.258,110.094 174.925,108.407 177.600 C 107.367 179.250,105.075 182.940,103.315 185.800 C 97.917 194.571,91.761 204.533,85.270 215.000 C 81.860 220.500,77.633 227.340,75.878 230.200 C 70.593 238.812,70.963 238.333,69.358 238.634 C 68.557 238.784,66.304 238.787,64.351 238.639 C 61.279 238.407,60.800 238.456,60.800 238.998 C 60.800 239.545,61.335 239.591,64.965 239.356 L 69.130 239.087 79.265 249.329 C 88.858 259.025,122.961 293.413,175.173 346.041 C 191.436 362.434,198.804 369.600,199.394 369.600 C 200.192 369.600,209.817 360.000,277.139 292.058 C 284.255 284.876,298.980 270.019,309.862 259.041 L 329.646 239.083 333.923 239.292 C 338.214 239.503,339.200 239.412,339.200 238.808 C 339.200 238.630,337.085 238.570,334.500 238.676 C 328.573 238.920,328.222 238.775,325.967 235.148 C 324.959 233.527,321.910 228.600,319.192 224.200 C 309.655 208.763,299.867 192.947,296.417 187.400 C 294.502 184.320,291.490 179.460,289.724 176.600 C 287.959 173.740,282.504 164.920,277.603 157.000 C 272.702 149.080,267.250 140.260,265.488 137.400 C 263.726 134.540,261.381 130.760,260.277 129.000 C 259.172 127.240,257.423 124.450,256.389 122.800 C 255.355 121.150,251.127 114.310,246.995 107.600 C 242.862 100.890,236.853 91.188,233.640 86.039 C 230.428 80.891,227.373 75.941,226.850 75.039 C 226.328 74.138,224.778 71.600,223.405 69.400 C 220.848 65.301,210.816 49.136,203.856 37.900 C 199.791 31.337,199.746 31.287,198.725 32.100 M201.956 36.900 C 203.108 38.715,205.143 42.000,206.478 44.200 C 207.814 46.400,209.484 49.100,210.189 50.200 C 210.895 51.300,212.069 53.190,212.799 54.400 C 213.528 55.610,215.025 58.040,216.125 59.800 C 217.224 61.560,219.657 65.520,221.532 68.600 C 223.406 71.680,225.448 74.826,226.070 75.591 C 226.691 76.356,227.200 77.107,227.200 77.259 C 227.200 77.725,231.976 85.653,233.171 87.171 C 233.789 87.957,234.792 89.590,235.399 90.800 C 236.006 92.010,237.525 94.530,238.775 96.400 C 240.024 98.270,241.654 100.880,242.396 102.200 C 243.138 103.520,245.031 106.580,246.602 109.000 C 248.173 111.420,250.130 114.570,250.951 116.000 C 251.772 117.430,253.361 120.040,254.483 121.800 C 255.606 123.560,257.729 126.980,259.202 129.400 C 260.674 131.820,262.866 135.330,264.071 137.200 C 265.276 139.070,266.941 141.820,267.772 143.311 C 268.602 144.803,270.029 147.053,270.943 148.311 C 271.856 149.570,273.122 151.590,273.756 152.800 C 274.389 154.010,275.932 156.530,277.183 158.400 C 278.435 160.270,280.324 163.330,281.383 165.200 C 282.441 167.070,284.233 169.950,285.366 171.600 C 286.498 173.250,287.656 175.130,287.939 175.778 C 288.222 176.426,289.582 178.676,290.960 180.778 C 292.339 182.880,294.879 186.940,296.605 189.800 C 298.331 192.660,300.296 195.846,300.971 196.880 C 301.647 197.914,303.190 200.399,304.400 202.402 C 305.610 204.405,307.508 207.429,308.617 209.122 C 309.726 210.815,311.508 213.730,312.577 215.600 C 313.646 217.470,315.275 220.080,316.197 221.400 C 317.119 222.720,318.824 225.481,319.987 227.535 C 321.149 229.589,322.699 232.054,323.431 233.013 C 325.061 235.148,326.454 237.813,326.116 238.150 C 325.979 238.288,323.206 238.400,319.954 238.400 L 314.040 238.400 312.272 235.900 C 311.299 234.525,309.380 231.465,308.008 229.100 C 306.635 226.735,305.373 224.800,305.203 224.800 C 305.033 224.800,304.790 224.485,304.664 224.100 C 304.421 223.358,302.930 220.727,301.432 218.400 C 297.243 211.890,296.102 210.068,295.668 209.200 C 295.028 207.919,294.596 207.213,292.361 203.800 C 291.353 202.260,289.755 199.650,288.810 198.000 C 287.864 196.350,286.785 194.640,286.410 194.200 C 285.804 193.488,283.317 189.459,281.122 185.633 C 280.691 184.881,279.932 183.711,279.435 183.033 C 278.938 182.355,277.646 180.303,276.565 178.474 C 275.484 176.645,274.420 174.845,274.200 174.474 C 273.980 174.103,273.244 172.990,272.563 172.000 C 271.883 171.010,270.742 169.120,270.026 167.800 C 269.311 166.480,267.842 164.101,266.763 162.514 C 265.683 160.926,264.800 159.519,264.800 159.386 C 264.800 159.253,264.260 158.359,263.600 157.400 C 262.940 156.441,262.400 155.518,262.400 155.349 C 262.400 154.999,260.459 152.073,259.684 151.256 C 259.401 150.956,258.701 149.786,258.128 148.656 C 257.556 147.525,256.005 144.980,254.681 143.000 C 253.356 141.020,251.733 138.410,251.073 137.200 C 250.413 135.990,249.317 134.190,248.637 133.200 C 247.956 132.210,247.220 131.098,247.000 130.729 C 246.780 130.360,245.719 128.560,244.643 126.729 C 243.566 124.898,242.015 122.410,241.195 121.200 C 240.375 119.990,238.657 117.200,237.378 115.000 C 236.098 112.800,234.573 110.370,233.988 109.600 C 233.403 108.830,232.386 107.210,231.728 106.000 C 231.069 104.790,229.196 101.688,227.565 99.107 C 221.608 89.680,220.984 88.691,220.092 87.258 C 219.592 86.456,219.065 85.530,218.921 85.200 C 218.776 84.870,218.555 84.510,218.429 84.400 C 218.303 84.290,217.762 83.390,217.228 82.400 C 216.693 81.410,215.568 79.663,214.728 78.517 C 213.887 77.371,213.199 76.291,213.198 76.117 C 213.194 75.612,207.982 67.414,207.571 67.267 C 207.367 67.193,207.200 66.989,207.200 66.813 C 207.200 66.437,204.460 61.677,202.187 58.105 C 200.075 54.785,199.272 54.825,197.366 58.342 C 196.609 59.741,195.481 61.631,194.859 62.542 C 192.768 65.612,190.903 68.630,189.991 70.421 C 189.492 71.399,188.642 72.781,188.102 73.491 C 187.138 74.756,185.088 78.021,183.511 80.800 C 183.074 81.570,182.050 83.190,181.235 84.400 C 180.420 85.610,179.142 87.680,178.397 89.000 C 177.651 90.320,175.861 93.246,174.420 95.502 C 172.979 97.758,170.900 101.068,169.800 102.858 C 168.700 104.647,167.440 106.683,167.000 107.381 C 165.309 110.065,163.200 113.652,163.200 113.845 C 163.200 113.956,162.668 114.711,162.017 115.523 C 161.366 116.336,160.421 117.757,159.917 118.683 C 159.413 119.608,158.010 121.928,156.800 123.838 C 152.776 130.190,151.238 132.777,150.936 133.700 C 150.810 134.085,150.548 134.400,150.353 134.400 C 150.159 134.400,150.000 134.569,150.000 134.775 C 150.000 134.981,149.216 136.295,148.258 137.694 C 147.300 139.094,146.061 141.054,145.504 142.051 C 143.584 145.489,143.399 145.801,143.155 146.000 C 142.766 146.316,137.600 154.859,137.600 155.185 C 137.600 155.346,137.222 155.910,136.759 156.439 C 136.297 156.967,134.902 159.097,133.659 161.171 C 132.417 163.245,131.040 165.516,130.600 166.219 C 130.160 166.921,128.864 169.004,127.720 170.848 C 126.576 172.691,124.686 175.715,123.520 177.568 C 122.354 179.420,121.310 181.130,121.200 181.368 C 121.090 181.605,120.505 182.561,119.900 183.492 C 119.295 184.423,118.800 185.290,118.800 185.420 C 118.800 185.550,118.014 186.769,117.054 188.128 C 116.093 189.488,114.858 191.410,114.308 192.400 C 112.460 195.731,111.456 197.388,109.824 199.800 C 107.691 202.953,107.271 203.633,106.825 204.656 C 106.621 205.128,105.218 207.378,103.708 209.656 C 102.198 211.935,100.522 214.693,99.982 215.785 C 99.442 216.876,98.669 218.136,98.265 218.585 C 97.309 219.645,92.000 228.619,92.000 229.174 C 92.000 229.408,91.865 229.600,91.700 229.601 C 91.336 229.602,89.276 232.662,87.797 235.400 C 86.079 238.580,86.584 238.400,79.375 238.400 C 71.929 238.400,72.007 238.437,73.721 235.706 C 74.424 234.585,75.630 232.658,76.400 231.423 C 77.170 230.189,79.851 225.899,82.358 221.890 C 84.865 217.880,87.580 213.430,88.391 212.000 C 89.202 210.570,90.770 208.049,91.874 206.398 C 92.979 204.746,94.485 202.316,95.220 200.998 C 95.955 199.679,97.494 197.220,98.639 195.533 C 99.785 193.847,101.560 190.967,102.584 189.133 C 103.609 187.300,105.256 184.630,106.246 183.200 C 107.235 181.770,108.780 179.250,109.680 177.600 C 110.580 175.950,112.021 173.647,112.883 172.483 C 113.746 171.319,115.169 169.069,116.046 167.483 C 116.923 165.897,118.623 163.070,119.825 161.200 C 121.026 159.330,123.312 155.676,124.905 153.080 C 126.497 150.484,128.520 147.221,129.400 145.828 C 131.518 142.476,136.230 134.816,139.381 129.600 C 140.777 127.290,143.271 123.330,144.925 120.800 C 146.579 118.270,148.255 115.480,148.650 114.600 C 149.046 113.720,149.927 112.280,150.608 111.400 C 151.767 109.903,155.600 103.705,155.600 103.327 C 155.600 103.233,156.362 102.041,157.294 100.678 C 158.225 99.315,160.466 95.770,162.273 92.800 C 166.157 86.418,168.955 81.875,172.869 75.600 C 174.447 73.070,176.600 69.560,177.653 67.800 C 178.705 66.040,180.900 62.530,182.529 60.000 C 184.159 57.470,186.011 54.410,186.646 53.200 C 187.281 51.990,188.455 50.124,189.256 49.052 C 190.057 47.981,191.483 45.731,192.426 44.052 C 194.995 39.476,198.930 33.600,199.425 33.600 C 199.666 33.600,200.804 35.085,201.956 36.900 M202.804 60.621 C 204.232 62.942,206.098 65.957,206.950 67.321 C 207.803 68.684,208.793 70.286,209.150 70.880 C 209.508 71.474,210.507 73.094,211.372 74.480 C 219.313 87.208,225.468 97.140,225.823 97.800 C 226.059 98.240,226.712 99.320,227.274 100.200 C 227.835 101.080,229.963 104.500,232.002 107.800 C 234.041 111.100,236.764 115.476,238.054 117.524 C 239.344 119.571,240.400 121.328,240.400 121.428 C 240.400 121.527,241.030 122.505,241.800 123.600 C 242.570 124.695,243.200 125.685,243.200 125.800 C 243.200 125.914,244.190 127.542,245.400 129.418 C 246.610 131.293,247.600 132.888,247.600 132.961 C 247.600 133.034,249.134 135.503,251.008 138.447 C 252.882 141.391,254.535 144.070,254.680 144.400 C 254.825 144.730,256.144 146.890,257.611 149.200 C 259.078 151.510,261.774 155.830,263.601 158.800 C 265.428 161.770,267.930 165.816,269.162 167.790 C 270.393 169.765,271.580 171.698,271.800 172.087 C 273.261 174.665,276.592 179.823,276.868 179.933 C 277.050 180.007,277.200 180.218,277.200 180.402 C 277.200 180.587,278.395 182.687,279.857 185.069 C 281.318 187.451,283.777 191.470,285.322 194.000 C 286.867 196.530,288.822 199.625,289.666 200.878 C 290.510 202.131,291.200 203.346,291.200 203.578 C 291.200 203.810,291.380 204.000,291.600 204.000 C 291.820 204.000,292.000 204.163,292.000 204.362 C 292.000 204.561,292.828 206.046,293.841 207.662 C 294.853 209.278,296.158 211.380,296.741 212.333 C 301.672 220.402,302.831 222.262,303.189 222.683 C 303.415 222.949,303.600 223.260,303.600 223.375 C 303.600 223.596,305.349 226.420,308.253 230.887 C 309.214 232.365,310.000 233.687,310.000 233.825 C 310.000 233.963,310.372 234.599,310.827 235.238 C 311.944 236.807,311.657 236.721,308.068 234.419 C 304.499 232.130,296.973 228.486,293.200 227.220 C 291.770 226.740,290.240 226.197,289.800 226.014 C 283.929 223.567,268.522 219.966,254.800 217.833 C 236.518 214.991,224.766 214.200,200.800 214.200 C 176.834 214.200,165.082 214.991,146.800 217.833 C 134.260 219.782,118.632 223.325,114.200 225.224 C 113.760 225.412,111.960 226.037,110.200 226.613 C 103.595 228.773,95.521 232.881,90.600 236.584 C 88.400 238.240,86.420 239.666,86.200 239.753 C 85.667 239.963,93.739 248.172,165.499 320.400 C 178.723 333.710,191.692 346.805,194.320 349.500 C 197.073 352.323,199.416 354.401,199.849 354.401 C 200.307 354.402,206.053 348.878,214.600 340.217 C 232.679 321.898,259.952 294.397,290.284 263.900 L 314.453 239.600 320.626 239.600 C 325.117 239.600,326.800 239.729,326.800 240.074 C 326.800 240.334,316.461 250.909,303.824 263.574 C 291.187 276.238,280.522 286.980,280.124 287.444 C 277.758 290.204,199.781 368.400,199.394 368.400 C 199.135 368.400,182.020 351.347,161.361 330.504 C 140.703 309.661,112.287 281.035,98.216 266.892 C 73.289 241.836,72.019 240.528,72.006 239.900 C 72.003 239.735,75.026 239.600,78.724 239.600 C 83.499 239.600,85.630 239.455,86.079 239.100 C 86.804 238.526,91.600 230.951,91.600 230.379 C 91.600 230.171,91.780 230.000,92.000 230.000 C 92.220 230.000,92.400 229.824,92.400 229.609 C 92.400 229.394,93.811 227.005,95.537 224.299 C 97.262 221.594,98.747 219.194,98.837 218.967 C 98.926 218.740,100.190 216.674,101.644 214.377 C 103.099 212.080,105.837 207.680,107.729 204.600 C 109.621 201.520,111.356 198.783,111.585 198.517 C 111.813 198.251,112.000 197.938,112.000 197.820 C 112.000 197.702,113.053 195.940,114.339 193.903 C 118.312 187.615,123.372 179.458,123.955 178.404 C 124.260 177.852,124.766 176.909,125.080 176.308 C 125.394 175.707,125.830 175.105,126.050 174.969 C 126.270 174.833,126.621 174.335,126.831 173.861 C 127.041 173.388,128.736 170.570,130.598 167.600 C 132.460 164.630,134.592 161.210,135.336 160.000 C 136.080 158.790,138.513 154.859,140.744 151.265 C 142.975 147.671,144.800 144.648,144.800 144.548 C 144.800 144.448,144.985 144.149,145.211 143.883 C 145.702 143.305,146.906 141.395,150.813 135.000 C 152.426 132.360,153.956 129.930,154.213 129.600 C 154.471 129.270,155.113 128.191,155.641 127.202 C 156.168 126.214,156.744 125.224,156.920 125.002 C 157.096 124.781,159.026 121.720,161.209 118.200 C 163.392 114.680,165.520 111.260,165.937 110.600 C 166.354 109.940,167.863 107.510,169.290 105.200 C 170.717 102.890,172.834 99.470,173.995 97.600 C 175.156 95.730,176.421 93.660,176.807 93.000 C 177.435 91.924,182.473 83.799,186.108 78.000 C 187.570 75.668,194.999 63.626,197.758 59.116 C 199.858 55.683,199.746 55.650,202.804 60.621 M216.400 214.826 C 228.111 215.261,234.707 215.776,246.400 217.170 C 254.672 218.156,266.967 220.337,273.400 221.960 C 274.280 222.182,275.720 222.540,276.600 222.755 C 277.480 222.971,278.830 223.323,279.600 223.539 C 280.370 223.754,282.064 224.221,283.364 224.577 C 294.315 227.571,305.887 233.003,311.266 237.674 C 313.549 239.658,314.452 238.561,291.557 261.613 C 258.262 295.135,229.120 324.557,227.739 326.043 C 227.045 326.789,225.693 328.120,224.735 329.000 C 223.776 329.880,222.527 331.140,221.959 331.800 C 221.391 332.460,220.042 333.842,218.963 334.872 C 217.883 335.901,213.248 340.536,208.663 345.172 C 204.078 349.807,200.102 353.600,199.828 353.600 C 199.553 353.600,187.375 341.515,172.764 326.745 C 158.154 311.974,145.672 299.419,145.027 298.845 C 144.382 298.270,143.212 297.116,142.427 296.279 C 141.642 295.443,128.940 282.604,114.200 267.749 C 99.460 252.894,87.400 240.598,87.400 240.424 C 87.400 240.031,91.550 236.581,94.123 234.835 C 99.085 231.468,109.974 226.836,118.236 224.577 C 119.536 224.221,121.230 223.754,122.000 223.539 C 125.246 222.630,132.162 220.988,135.400 220.358 C 151.290 217.264,167.589 215.422,184.200 214.840 C 196.101 214.424,205.461 214.420,216.400 214.826 " stroke="none" fill="#000000" fill-rule="evenodd"></path><path id="path2" d="M196.564 37.300 C 195.231 39.335,193.368 42.374,192.426 44.052 C 191.483 45.731,190.057 47.981,189.256 49.052 C 188.455 50.124,187.281 51.990,186.646 53.200 C 186.011 54.410,184.159 57.470,182.529 60.000 C 180.900 62.530,178.705 66.040,177.653 67.800 C 176.600 69.560,174.447 73.070,172.869 75.600 C 168.955 81.875,166.157 86.418,162.273 92.800 C 160.466 95.770,158.225 99.315,157.294 100.678 C 156.362 102.041,155.600 103.233,155.600 103.327 C 155.600 103.705,151.767 109.903,150.608 111.400 C 149.927 112.280,149.046 113.720,148.650 114.600 C 148.255 115.480,146.579 118.270,144.925 120.800 C 143.271 123.330,140.777 127.290,139.381 129.600 C 136.230 134.816,131.518 142.476,129.400 145.828 C 128.520 147.221,126.497 150.484,124.905 153.080 C 123.312 155.676,121.026 159.330,119.825 161.200 C 118.623 163.070,116.923 165.897,116.046 167.483 C 115.169 169.069,113.746 171.319,112.883 172.483 C 112.021 173.647,110.580 175.950,109.680 177.600 C 108.780 179.250,107.235 181.770,106.246 183.200 C 105.256 184.630,103.609 187.300,102.584 189.133 C 101.560 190.967,99.785 193.847,98.639 195.533 C 97.494 197.220,95.955 199.679,95.220 200.998 C 94.485 202.316,92.979 204.746,91.874 206.398 C 90.770 208.049,89.202 210.570,88.391 212.000 C 87.580 213.430,84.865 217.880,82.358 221.890 C 79.851 225.899,77.170 230.189,76.400 231.423 C 75.630 232.658,74.424 234.585,73.721 235.706 C 72.007 238.437,71.929 238.400,79.375 238.400 C 86.584 238.400,86.079 238.580,87.797 235.400 C 89.276 232.662,91.336 229.602,91.700 229.601 C 91.865 229.600,92.000 229.408,92.000 229.174 C 92.000 228.619,97.309 219.645,98.265 218.585 C 98.669 218.136,99.442 216.876,99.982 215.785 C 100.522 214.693,102.198 211.935,103.708 209.656 C 105.218 207.378,106.621 205.128,106.825 204.656 C 107.271 203.633,107.691 202.953,109.824 199.800 C 111.456 197.388,112.460 195.731,114.308 192.400 C 114.858 191.410,116.093 189.488,117.054 188.128 C 118.014 186.769,118.800 185.550,118.800 185.420 C 118.800 185.290,119.295 184.423,119.900 183.492 C 120.505 182.561,121.090 181.605,121.200 181.368 C 121.310 181.130,122.354 179.420,123.520 177.568 C 124.686 175.715,126.576 172.691,127.720 170.848 C 128.864 169.004,130.160 166.921,130.600 166.219 C 131.040 165.516,132.417 163.245,133.659 161.171 C 134.902 159.097,136.297 156.967,136.759 156.439 C 137.222 155.910,137.600 155.346,137.600 155.185 C 137.600 154.859,142.766 146.316,143.155 146.000 C 143.399 145.801,143.584 145.489,145.504 142.051 C 146.061 141.054,147.300 139.094,148.258 137.694 C 149.216 136.295,150.000 134.981,150.000 134.775 C 150.000 134.569,150.159 134.400,150.353 134.400 C 150.548 134.400,150.810 134.085,150.936 133.700 C 151.238 132.777,152.776 130.190,156.800 123.838 C 158.010 121.928,159.413 119.608,159.917 118.683 C 160.421 117.757,161.366 116.336,162.017 115.523 C 162.668 114.711,163.200 113.956,163.200 113.845 C 163.200 113.652,165.309 110.065,167.000 107.381 C 167.440 106.683,168.700 104.647,169.800 102.858 C 170.900 101.068,172.979 97.758,174.420 95.502 C 175.861 93.246,177.651 90.320,178.397 89.000 C 179.142 87.680,180.420 85.610,181.235 84.400 C 182.050 83.190,183.074 81.570,183.511 80.800 C 185.088 78.021,187.138 74.756,188.102 73.491 C 188.642 72.781,189.492 71.399,189.991 70.421 C 190.903 68.630,192.768 65.612,194.859 62.542 C 195.481 61.631,196.609 59.741,197.366 58.342 C 199.272 54.825,200.075 54.785,202.187 58.105 C 204.460 61.677,207.200 66.437,207.200 66.813 C 207.200 66.989,207.367 67.193,207.571 67.267 C 207.982 67.414,213.194 75.612,213.198 76.117 C 213.199 76.291,213.887 77.371,214.728 78.517 C 215.568 79.663,216.693 81.410,217.228 82.400 C 217.762 83.390,218.303 84.290,218.429 84.400 C 218.555 84.510,218.776 84.870,218.921 85.200 C 219.065 85.530,219.592 86.456,220.092 87.258 C 220.984 88.691,221.608 89.680,227.565 99.107 C 229.196 101.688,231.069 104.790,231.728 106.000 C 232.386 107.210,233.403 108.830,233.988 109.600 C 234.573 110.370,236.098 112.800,237.378 115.000 C 238.657 117.200,240.375 119.990,241.195 121.200 C 242.015 122.410,243.566 124.898,244.643 126.729 C 245.719 128.560,246.780 130.360,247.000 130.729 C 247.220 131.098,247.956 132.210,248.637 133.200 C 249.317 134.190,250.413 135.990,251.073 137.200 C 251.733 138.410,253.356 141.020,254.681 143.000 C 256.005 144.980,257.556 147.525,258.128 148.656 C 258.701 149.786,259.401 150.956,259.684 151.256 C 260.459 152.073,262.400 154.999,262.400 155.349 C 262.400 155.518,262.940 156.441,263.600 157.400 C 264.260 158.359,264.800 159.253,264.800 159.386 C 264.800 159.519,265.683 160.926,266.763 162.514 C 267.842 164.101,269.311 166.480,270.026 167.800 C 270.742 169.120,271.883 171.010,272.563 172.000 C 273.244 172.990,273.980 174.103,274.200 174.474 C 274.420 174.845,275.484 176.645,276.565 178.474 C 277.646 180.303,278.938 182.355,279.435 183.033 C 279.932 183.711,280.691 184.881,281.122 185.633 C 283.317 189.459,285.804 193.488,286.410 194.200 C 286.785 194.640,287.864 196.350,288.810 198.000 C 289.755 199.650,291.353 202.260,292.361 203.800 C 294.596 207.213,295.028 207.919,295.668 209.200 C 296.102 210.068,297.243 211.890,301.432 218.400 C 302.930 220.727,304.421 223.358,304.664 224.100 C 304.790 224.485,305.033 224.800,305.203 224.800 C 305.373 224.800,306.635 226.735,308.008 229.100 C 309.380 231.465,311.299 234.525,312.272 235.900 L 314.040 238.400 319.954 238.400 C 323.206 238.400,325.979 238.288,326.116 238.150 C 326.454 237.813,325.061 235.148,323.431 233.013 C 322.699 232.054,321.149 229.589,319.987 227.535 C 318.824 225.481,317.119 222.720,316.197 221.400 C 315.275 220.080,313.646 217.470,312.577 215.600 C 311.508 213.730,309.726 210.815,308.617 209.122 C 307.508 207.429,305.610 204.405,304.400 202.402 C 303.190 200.399,301.647 197.914,300.971 196.880 C 300.296 195.846,298.331 192.660,296.605 189.800 C 294.879 186.940,292.339 182.880,290.960 180.778 C 289.582 178.676,288.222 176.426,287.939 175.778 C 287.656 175.130,286.498 173.250,285.366 171.600 C 284.233 169.950,282.441 167.070,281.383 165.200 C 280.324 163.330,278.435 160.270,277.183 158.400 C 275.932 156.530,274.389 154.010,273.756 152.800 C 273.122 151.590,271.856 149.570,270.943 148.311 C 270.029 147.053,268.602 144.803,267.772 143.311 C 266.941 141.820,265.276 139.070,264.071 137.200 C 262.866 135.330,260.674 131.820,259.202 129.400 C 257.729 126.980,255.606 123.560,254.483 121.800 C 253.361 120.040,251.772 117.430,250.951 116.000 C 250.130 114.570,248.173 111.420,246.602 109.000 C 245.031 106.580,243.138 103.520,242.396 102.200 C 241.654 100.880,240.024 98.270,238.775 96.400 C 237.525 94.530,236.006 92.010,235.399 90.800 C 234.792 89.590,233.789 87.957,233.171 87.171 C 231.976 85.653,227.200 77.725,227.200 77.259 C 227.200 77.107,226.691 76.356,226.070 75.591 C 225.448 74.826,223.406 71.680,221.532 68.600 C 219.657 65.520,217.224 61.560,216.125 59.800 C 215.025 58.040,213.528 55.610,212.799 54.400 C 212.069 53.190,210.895 51.300,210.189 50.200 C 209.484 49.100,207.814 46.400,206.478 44.200 C 201.928 36.704,199.863 33.600,199.425 33.600 C 199.185 33.600,197.898 35.265,196.564 37.300 M184.200 214.840 C 167.589 215.422,151.290 217.264,135.400 220.358 C 132.162 220.988,125.246 222.630,122.000 223.539 C 121.230 223.754,119.536 224.221,118.236 224.577 C 109.974 226.836,99.085 231.468,94.123 234.835 C 91.550 236.581,87.400 240.031,87.400 240.424 C 87.400 240.598,99.460 252.894,114.200 267.749 C 128.940 282.604,141.642 295.443,142.427 296.279 C 143.212 297.116,144.382 298.270,145.027 298.845 C 145.672 299.419,158.154 311.974,172.764 326.745 C 187.375 341.515,199.553 353.600,199.828 353.600 C 200.102 353.600,204.078 349.807,208.663 345.172 C 213.248 340.536,217.883 335.901,218.963 334.872 C 220.042 333.842,221.391 332.460,221.959 331.800 C 222.527 331.140,223.776 329.880,224.735 329.000 C 225.693 328.120,227.045 326.789,227.739 326.043 C 229.120 324.557,258.262 295.135,291.557 261.613 C 314.452 238.561,313.549 239.658,311.266 237.674 C 305.887 233.003,294.315 227.571,283.364 224.577 C 282.064 224.221,280.370 223.754,279.600 223.539 C 278.830 223.323,277.480 222.971,276.600 222.755 C 275.720 222.540,274.280 222.182,273.400 221.960 C 268.229 220.656,262.176 219.512,252.400 217.994 C 233.672 215.084,209.358 213.960,184.200 214.840 M60.403 239.811 C 60.398 240.497,61.660 242.112,63.519 243.800 C 64.489 244.680,65.939 246.100,66.741 246.954 C 69.250 249.627,70.990 251.354,72.522 252.688 C 73.335 253.396,74.000 254.086,74.000 254.222 C 74.000 254.358,75.035 255.441,76.300 256.628 C 77.565 257.815,78.732 258.925,78.893 259.093 C 79.615 259.849,84.751 265.041,85.133 265.400 C 87.203 267.348,112.486 293.063,115.219 296.000 C 117.164 298.090,119.568 300.430,120.562 301.200 C 121.556 301.970,122.387 302.780,122.408 303.000 C 122.428 303.220,123.680 304.480,125.190 305.800 C 126.699 307.120,127.949 308.385,127.967 308.611 C 127.995 308.963,138.266 319.454,141.466 322.400 C 142.064 322.950,143.463 324.377,144.576 325.570 C 145.689 326.764,147.292 328.384,148.138 329.170 C 148.984 329.957,150.694 331.661,151.938 332.958 C 153.182 334.255,154.636 335.695,155.169 336.158 C 155.703 336.621,156.603 337.506,157.169 338.124 C 158.046 339.079,167.509 348.609,168.764 349.800 C 171.792 352.673,188.800 370.108,188.800 370.339 C 188.800 370.752,190.950 372.800,191.384 372.800 C 191.797 372.800,197.200 378.462,197.200 378.894 C 197.200 380.280,202.053 379.104,203.682 377.323 C 204.627 376.291,205.995 374.896,206.721 374.223 C 208.296 372.765,208.771 372.289,226.300 354.612 C 233.835 347.013,240.000 340.617,240.000 340.398 C 240.000 340.179,240.276 340.000,240.613 340.000 C 240.949 340.000,241.325 339.740,241.447 339.423 C 241.568 339.106,243.661 336.901,246.097 334.523 C 248.533 332.145,251.083 329.611,251.763 328.892 C 252.443 328.173,257.140 323.396,262.200 318.278 C 267.260 313.161,271.665 308.574,271.988 308.087 C 272.312 307.599,272.699 307.200,272.849 307.200 C 273.000 307.200,275.582 304.725,278.588 301.700 C 281.594 298.675,284.511 295.750,285.071 295.200 C 285.630 294.650,286.923 293.320,287.944 292.245 C 288.965 291.170,290.589 289.550,291.554 288.645 C 292.519 287.740,294.139 286.121,295.154 285.047 C 296.169 283.972,297.513 282.622,298.140 282.047 C 298.767 281.471,300.207 280.023,301.340 278.828 C 302.473 277.634,304.088 276.014,304.930 275.228 C 305.771 274.443,308.201 272.018,310.330 269.840 C 312.458 267.662,319.825 260.240,326.700 253.346 C 333.659 246.369,339.200 240.499,339.199 240.106 C 339.198 239.478,338.670 239.386,334.393 239.271 L 329.588 239.142 309.833 259.071 C 298.967 270.032,284.255 284.876,277.139 292.058 C 209.817 360.000,200.192 369.600,199.394 369.600 C 198.804 369.600,191.436 362.434,175.173 346.041 C 123.007 293.460,88.862 259.028,79.291 249.355 L 69.182 239.139 64.794 239.269 C 62.144 239.348,60.405 239.563,60.403 239.811 " stroke="none" fill="#040404" fill-rule="evenodd"></path></g></svg>